<?xml version="1.0" standalone="no"?>
<!DOCTYPE svg PUBLIC "-//W3C//DTD SVG 20010904//EN"
 "http://www.w3.org/TR/2001/REC-SVG-20010904/DTD/svg10.dtd">
<svg version="1.0" xmlns="http://www.w3.org/2000/svg"
 width="349.000000pt" height="142.000000pt" viewBox="0 0 349.000000 142.000000"
 preserveAspectRatio="xMidYMid meet">

<g transform="translate(0.000000,142.000000) scale(0.100000,-0.100000)"
fill="#FFF" stroke="none">
<path d="M2870 1388 c-41 -28 -54 -69 -36 -113 8 -18 20 -36 27 -41 8 -5 60
-9 117 -9 l103 0 -36 29 c-20 16 -41 41 -46 55 l-10 25 -22 -28 c-29 -36 -70
-34 -75 3 -8 52 66 68 129 28 20 -12 67 -50 105 -84 l69 -63 -75 0 c-189 1
-691 21 -916 37 -389 27 -1484 19 -1796 -13 -49 -5 -58 -3 -58 10 0 23 -65 91
-100 106 -42 17 -134 8 -168 -17 -37 -27 -70 -78 -78 -120 -14 -76 44 -173
117 -195 l39 -11 -2 -201 c-2 -111 1 -307 5 -436 l8 -235 -31 33 c-32 34 -35
52 -10 60 9 3 11 -1 7 -12 -4 -10 -1 -24 8 -32 13 -14 15 -11 15 26 0 39 -1
41 -27 38 -23 -2 -29 -8 -31 -36 -3 -25 4 -41 32 -73 19 -22 39 -57 44 -77 7
-27 10 -31 11 -14 1 30 16 58 53 100 37 43 37 95 -1 100 -13 2 -28 -2 -33 -10
-6 -8 -8 51 -4 162 3 96 6 272 6 390 l0 216 34 12 c38 14 106 83 106 108 0 13
8 15 47 10 264 -32 1419 -40 1807 -13 224 16 726 36 915 37 l74 0 -63 -57
c-116 -107 -168 -131 -221 -103 -26 15 -25 56 3 71 19 10 25 8 50 -21 l27 -33
10 25 c5 14 25 38 44 54 l35 29 -102 2 c-95 2 -105 0 -123 -20 -31 -33 -36
-61 -19 -102 18 -43 63 -65 134 -65 57 0 92 21 185 107 75 69 140 101 247 123
l85 17 -50 8 c-131 19 -199 53 -304 149 -32 30 -73 62 -90 70 -46 24 -131 21
-171 -6z m-2620 -166 c28 -35 26 -87 -5 -117 -21 -22 -45 -33 -45 -20 0 2 11
15 25 29 30 30 32 55 5 84 -26 27 -64 28 -90 2 -27 -27 -25 -64 5 -88 28 -22
32 -32 12 -32 -16 0 -51 37 -61 64 -10 28 11 81 37 94 53 25 89 21 117 -16z
m-41 -46 c17 -20 2 -46 -25 -46 -29 0 -41 24 -24 45 16 19 34 19 49 1z m41
-989 c0 -13 -13 -36 -30 -52 l-30 -29 0 48 c0 31 4 45 11 40 6 -3 9 -14 6 -25
-4 -15 -2 -16 14 -6 12 7 15 15 9 23 -6 6 -7 14 -3 17 13 14 23 6 23 -16z"/>
<path d="M2212 1068 c-7 -7 -12 -21 -12 -33 0 -12 5 -26 12 -33 7 -7 21 -12
33 -12 12 0 26 5 33 12 7 7 12 21 12 33 0 12 -5 26 -12 33 -7 7 -21 12 -33 12
-12 0 -26 -5 -33 -12z"/>
<path d="M585 940 c-159 -3 -233 -6 -162 -8 l127 -2 0 -129 c0 -143 -8 -165
-59 -159 -75 9 -64 197 12 198 22 1 22 1 3 15 -40 31 -119 7 -149 -44 -38 -64
-10 -179 49 -201 41 -16 89 -12 118 11 l26 20 0 -45 0 -46 50 0 50 0 0 128 c0
138 5 152 52 152 31 0 45 -19 53 -76 8 -61 -13 -107 -55 -121 -31 -10 -33 -12
-15 -19 11 -5 39 -9 62 -9 107 0 151 149 68 232 -28 28 -40 33 -79 33 -33 0
-52 -6 -66 -20 l-20 -20 0 50 0 50 145 0 145 0 0 -190 0 -190 50 0 50 0 0 191
0 190 176 -3 c197 -3 204 -6 204 -78 0 -40 -24 -70 -56 -70 -44 -1 -55 -34
-30 -91 9 -21 -18 -49 -48 -49 -39 0 -58 32 -58 98 0 72 14 102 47 102 35 0
31 17 -5 25 -45 10 -84 -2 -116 -36 -26 -27 -29 -37 -29 -94 0 -60 3 -67 33
-97 29 -29 39 -33 87 -33 44 0 59 5 82 27 l28 26 35 -19 c47 -25 125 -25 168
1 l32 20 0 -55 0 -55 50 0 50 0 0 190 0 190 55 0 55 0 0 -190 0 -190 50 0 50
0 0 190 0 190 151 0 150 0 -3 -52 -3 -53 -76 -5 c-92 -6 -125 -25 -135 -76 -7
-40 18 -86 50 -92 80 -16 108 83 31 108 -19 6 -35 16 -35 21 0 16 49 29 111
29 l59 0 0 -130 0 -130 45 0 45 0 0 190 0 190 116 0 115 0 -3 -42 c-3 -39 -6
-43 -36 -49 -41 -8 -71 -34 -88 -76 -42 -99 27 -193 141 -193 36 0 57 -7 91
-31 25 -17 48 -28 52 -24 4 4 2 10 -5 12 -7 2 -24 13 -38 25 l-26 20 26 24
c27 25 34 71 13 92 -7 7 -24 12 -38 12 -14 0 -31 -5 -38 -12 -15 -15 -16 -63
-2 -89 17 -30 -16 -24 -50 9 -33 34 -46 94 -31 149 15 53 43 78 92 78 l39 0 0
47 0 47 48 4 c111 8 -1656 14 -2083 7z m1005 -133 c0 -107 -2 -126 -18 -140
-25 -23 -75 -31 -101 -18 -42 23 -69 111 -33 111 9 0 32 9 50 20 28 17 32 25
32 60 0 30 -7 47 -25 65 l-24 25 59 0 60 0 0 -123z"/>
<path d="M1920 280 c0 -67 4 -110 10 -110 6 0 10 43 10 110 0 67 -4 110 -10
110 -6 0 -10 -43 -10 -110z"/>
<path d="M2330 280 c0 -67 4 -110 10 -110 6 0 10 13 10 29 0 44 15 46 46 6 41
-54 62 -45 23 10 l-33 45 29 30 c23 24 25 30 12 30 -10 0 -31 -15 -47 -32
l-29 -33 -1 68 c0 38 -4 67 -10 67 -6 0 -10 -43 -10 -110z"/>
<path d="M2630 361 c0 -37 16 -49 24 -18 9 35 7 47 -9 47 -10 0 -15 -10 -15
-29z"/>
<path d="M400 275 c0 -105 16 -148 22 -57 l3 47 53 3 52 3 0 -50 c0 -39 4 -51
15 -51 12 0 15 18 15 105 0 87 -3 105 -15 105 -11 0 -15 -12 -15 -45 l0 -45
-55 0 -55 0 0 45 c0 25 -4 45 -10 45 -6 0 -10 -42 -10 -105z"/>
<path d="M1047 362 c-36 -39 -14 -79 55 -101 40 -13 50 -27 36 -53 -12 -25
-64 -24 -80 2 -13 21 -38 27 -38 10 0 -24 41 -50 79 -50 45 0 71 20 71 54 0
28 -24 50 -72 66 -30 9 -38 17 -38 35 0 15 7 26 20 30 27 9 60 -3 60 -21 0 -8
7 -14 15 -14 22 0 18 27 -7 44 -30 22 -81 20 -101 -2z"/>
<path d="M1297 373 c-4 -3 -7 -51 -7 -106 l0 -99 57 4 c73 6 93 29 93 102 -1
54 -11 75 -47 94 -23 13 -86 16 -96 5z m106 -44 c40 -49 3 -139 -58 -139 -25
0 -25 1 -25 86 l0 87 33 -7 c17 -3 40 -16 50 -27z"/>
<path d="M1587 362 c-36 -39 -14 -79 55 -101 40 -13 50 -27 36 -53 -12 -25
-64 -24 -80 2 -13 21 -38 27 -38 10 0 -24 41 -50 79 -50 45 0 71 20 71 54 0
28 -24 50 -72 66 -30 9 -38 17 -38 35 0 15 7 26 20 30 27 9 60 -3 60 -21 0 -8
7 -14 15 -14 22 0 18 27 -7 44 -30 22 -81 20 -101 -2z"/>
<path d="M625 305 c-35 -34 -30 -101 9 -127 21 -14 66 -8 86 12 43 43 8 140
-50 140 -11 0 -32 -11 -45 -25z m69 -8 c21 -15 24 -70 6 -92 -15 -18 -41 -20
-58 -3 -17 17 -15 74 4 92 19 19 25 20 48 3z"/>
<path d="M826 321 c-3 -5 -15 -7 -26 -4 -19 5 -20 0 -20 -71 0 -61 3 -76 15
-76 12 0 15 13 15 60 0 48 4 61 19 70 32 16 51 -12 51 -76 0 -30 5 -54 10 -54
17 0 12 126 -6 144 -17 18 -50 21 -58 7z"/>
<path d="M1772 314 c-25 -17 -29 -34 -7 -34 8 0 15 4 15 9 0 13 27 21 45 15 8
-4 15 -15 15 -25 0 -15 -7 -19 -33 -19 -38 0 -57 -15 -57 -46 0 -32 20 -43 73
-42 l47 1 0 58 c0 86 -42 122 -98 83z m68 -89 c0 -18 -7 -26 -24 -31 -46 -11
-66 29 -23 46 36 15 47 11 47 -15z"/>
<path d="M2201 321 c-8 -5 -20 -7 -28 -4 -10 4 -13 -11 -13 -71 0 -44 4 -76
10 -76 6 0 10 24 10 53 0 58 12 77 47 77 22 0 23 -4 23 -65 0 -51 3 -65 15
-65 22 0 21 122 -1 144 -17 18 -42 20 -63 7z"/>
<path d="M2507 318 c-59 -46 -33 -148 38 -148 33 0 64 23 46 34 -5 4 -12 2
-16 -4 -11 -17 -54 -11 -65 9 -15 30 -14 31 40 31 49 0 50 1 50 29 0 48 -55
77 -93 49z m57 -24 c25 -25 19 -34 -24 -34 -44 0 -48 5 -23 32 20 22 27 22 47
2z"/>
<path d="M2718 319 c-10 -5 -18 -21 -18 -35 0 -20 9 -29 46 -44 50 -22 54 -43
11 -48 -18 -2 -29 2 -33 12 -6 17 -34 22 -34 8 0 -18 38 -42 67 -42 61 0 73
65 16 84 -45 15 -58 30 -38 46 12 10 20 9 41 -5 33 -22 46 -9 15 16 -26 21
-47 24 -73 8z"/>
<path d="M1990 256 c0 -76 9 -86 73 -84 l47 2 0 73 c0 42 -4 73 -10 73 -5 0
-10 -22 -10 -48 0 -55 -18 -86 -46 -80 -16 3 -19 13 -22 66 -2 46 -7 62 -17
62 -12 0 -15 -15 -15 -64z"/>
<path d="M950 185 c0 -8 7 -15 15 -15 8 0 15 7 15 15 0 8 -7 15 -15 15 -8 0
-15 -7 -15 -15z"/>
<path d="M1210 185 c0 -8 7 -15 15 -15 8 0 15 7 15 15 0 8 -7 15 -15 15 -8 0
-15 -7 -15 -15z"/>
<path d="M1490 185 c0 -8 7 -15 15 -15 8 0 15 7 15 15 0 8 -7 15 -15 15 -8 0
-15 -7 -15 -15z"/>
</g>
</svg>
